<?xml version="1.0" encoding="UTF-8" standalone="no"?>
<!-- Created with Inkscape (http://www.inkscape.org/) -->

<svg
   xmlns:dc="http://purl.org/dc/elements/1.1/"
   xmlns:cc="http://creativecommons.org/ns#"
   xmlns:rdf="http://www.w3.org/1999/02/22-rdf-syntax-ns#"
   xmlns:svg="http://www.w3.org/2000/svg"
   xmlns="http://www.w3.org/2000/svg"
   xmlns:sodipodi="http://sodipodi.sourceforge.net/DTD/sodipodi-0.dtd"
   xmlns:inkscape="http://www.inkscape.org/namespaces/inkscape"
   width="96"
   height="96"
   viewBox="0 0 1 1"
   version="1.1"
   id="svg4492"
   inkscape:version="0.92.3 (2405546, 2018-03-11)"
   sodipodi:docname="App Icon.svg"
   inkscape:export-filename="D:\Temp\bitmap.png"
   inkscape:export-xdpi="96"
   inkscape:export-ydpi="96">
  <defs
     id="defs4485" />
  <sodipodi:namedview
     inkscape:document-units="in"
     pagecolor="#ffffff"
     bordercolor="#666666"
     borderopacity="1.0"
     inkscape:pageopacity="0.0"
     inkscape:pageshadow="2"
     inkscape:zoom="4.0729351"
     inkscape:cx="79.701396"
     inkscape:cy="45.907768"
     inkscape:current-layer="layer1"
     id="namedview4487"
     showgrid="true"
     inkscape:pagecheckerboard="false"
     borderlayer="false"
     inkscape:window-width="1920"
     inkscape:window-height="1001"
     inkscape:window-x="-9"
     inkscape:window-y="-9"
     inkscape:window-maximized="1"
     units="px"
     width="96px"
     inkscape:snap-grids="false"
     inkscape:snap-global="false">
    <inkscape:grid
       type="xygrid"
       id="grid5037"
       units="in"
       spacingx="0.125"
       spacingy="0.125"
       empspacing="4"
       color="#3f3fff"
       opacity="0.03921569" />
  </sodipodi:namedview>
  <metadata
     id="metadata4489">
    <rdf:RDF>
      <cc:Work
         rdf:about="">
        <dc:format>image/svg+xml</dc:format>
        <dc:type
           rdf:resource="http://purl.org/dc/dcmitype/StillImage" />
        <dc:title></dc:title>
      </cc:Work>
    </rdf:RDF>
  </metadata>
  <g
     inkscape:label="Layer 1"
     inkscape:groupmode="layer"
     id="layer1"
     transform="translate(0,-10)">
    <text
       xml:space="preserve"
       style="font-style:normal;font-variant:normal;font-weight:normal;font-stretch:normal;font-size:0.45524666px;line-height:100%;font-family:'Arial Rounded MT Bold';-inkscape-font-specification:'Arial Rounded MT Bold, ';font-variant-ligatures:normal;font-variant-caps:normal;font-variant-numeric:normal;font-feature-settings:normal;text-align:center;letter-spacing:0px;word-spacing:0px;writing-mode:lr-tb;text-anchor:middle;fill:#000000;fill-opacity:1;stroke:none;stroke-width:0.01896861px;stroke-linecap:butt;stroke-linejoin:miter;stroke-opacity:1"
       x="0.74981868"
       y="7.2029223"
       id="text1005"
       transform="scale(0.67052991,1.4913578)"><tspan
         sodipodi:role="line"
         id="tspan1003"
         x="0.74981868"
         y="7.2029223"
         style="stroke-width:0.01896861px">&lt;       /&gt;</tspan></text>
    <g
       id="g1001"
       transform="matrix(1.0026824,0,0,1.2523501,-0.80302095,-2.7370388)">
      <g
         id="g961">
        <path
           sodipodi:nodetypes="ccccccccc"
           inkscape:connector-curvature="0"
           id="path889"
           d="m 1.0133158,10.757772 c -0.0136106,-0.01071 -0.0173835,-0.04489 -0.0212931,-0.192894 -0.004652,-0.176116 -0.004294,-0.179983 0.0171548,-0.185104 0.012048,-0.0029 0.1344063,-0.0063 0.2719063,-0.0076 l 0.25,-0.0024 -2.567e-4,0.190643 c -2.109e-4,0.15651 -0.00301,0.192383 -0.015625,0.200361 -0.024487,0.01548 -0.4818784,0.01277 -0.5018863,-0.003 z"
           style="fill:#e3e3e3;stroke-width:0.01041667" />
        <path
           sodipodi:nodetypes="ccccccccccc"
           inkscape:connector-curvature="0"
           id="path881"
           d="m 1.0049455,10.744635 c -0.01013,-0.01221 -0.0113361,-0.03814 -0.004975,-0.106956 0.004618,-0.04996 0.008821,-0.126001 0.009338,-0.168969 l 9.417e-4,-0.07813 h 0.25 0.25 v 0.182291 0.182292 l -0.2459667,0.0028 c -0.211531,0.0024 -0.2478388,5.34e-4 -0.2593385,-0.01332 z"
           style="fill:#c8c8c7;stroke-width:0.01041667" />
        <path
           sodipodi:nodetypes="cccscccccscc"
           inkscape:connector-curvature="0"
           id="path879"
           d="m 1.0101263,10.749759 c -0.00361,-0.0058 -0.00418,-0.0867 -0.00127,-0.179688 l 0.0053,-0.16907 0.08659,-0.008 c 0.047624,-0.0044 0.1569023,-0.0068 0.2428398,-0.0052 l 0.15625,0.0028 0.0025,0.06771 c 0.00137,0.03724 0.00535,0.113552 0.00883,0.169583 0.00454,0.07301 0.00273,0.106213 -0.00638,0.117188 -0.010502,0.01265 -0.053982,0.01531 -0.2504014,0.01531 -0.1502281,0 -0.2401079,-0.0039 -0.2442553,-0.01062 z"
           style="fill:#d6c8b4;stroke-width:0.01041667" />
        <path
           sodipodi:nodetypes="cccccccccccccccccc"
           inkscape:connector-curvature="0"
           id="path877"
           d="m 1.0094922,10.746531 c -0.00292,-0.0076 -0.00395,-0.05566 -0.00228,-0.106771 l 0.00304,-0.09292 0.1197917,-6.22e-4 c 0.065885,-3.42e-4 0.1731496,-0.007 0.2383647,-0.01488 0.1128528,-0.01357 0.1192601,-0.01332 0.1328125,0.0052 0.018381,0.02514 0.019765,0.193299 0.00174,0.211325 -0.018977,0.01898 -0.4861571,0.0177 -0.4934668,-0.0013 z m 0.2405076,-0.246571 -0.229001,-0.0052 -0.007,-0.04167 c -0.00385,-0.02292 -0.00298,-0.04589 0.00192,-0.05105 0.00491,-0.0052 0.1157932,-0.0098 0.2464153,-0.01042 l 0.2374948,-10e-4 0.00307,0.04167 C 1.5083139,10.50584 1.5081889,10.50587 1.25,10.5 Z"
           style="fill:#ccc0ae;stroke-width:0.01041667" />
        <path
           sodipodi:nodetypes="cccccccccccccccccc"
           inkscape:connector-curvature="0"
           id="path875"
           d="m 1.0180632,10.753478 c -0.015206,-0.0061 -0.0188615,-0.196596 -0.00395,-0.205812 0.00499,-0.0031 0.051735,-0.0017 0.1038791,0.0031 0.07044,0.0065 0.1088524,0.0051 0.1494492,-0.0054 0.070373,-0.01825 0.222948,-0.01901 0.2340561,-0.0012 0.011408,0.01833 0.011412,0.187371 4.9e-6,0.203125 -0.00709,0.0098 -0.066714,0.01282 -0.2399232,0.0122 -0.1267724,-4.52e-4 -0.2363547,-0.0032 -0.2435162,-0.0061 z m -0.00191,-0.302684 c -0.0066,-0.02391 -0.00699,-0.04246 -10e-4,-0.04844 0.00535,-0.0053 0.116106,-0.01016 0.2471886,-0.01073 l 0.2374948,-10e-4 0.00333,0.04061 c 0.00208,0.02544 -0.00181,0.04386 -0.010417,0.04932 -0.00756,0.0048 -0.1154745,0.0088 -0.2398146,0.0089 l -0.2260729,1.6e-4 z"
           style="fill:#bcbcbb;stroke-width:0.01041667" />
        <path
           inkscape:connector-curvature="0"
           id="path873"
           d="m 1.0180632,10.753577 c -0.014704,-0.006 -0.018588,-0.176642 -0.00453,-0.198781 0.0062,-0.0098 0.031254,-0.01074 0.1037196,-0.0041 0.07118,0.0066 0.1094777,0.0052 0.1501849,-0.0054 0.030053,-0.0078 0.093579,-0.01417 0.1411704,-0.01417 0.1041131,0 0.1054077,0.0018 0.096876,0.135416 l -0.00565,0.08854 -0.234375,0.0019 c -0.1289062,10e-4 -0.2402344,-5.28e-4 -0.2473958,-0.0035 z m 0.00188,-0.289252 c -0.00348,-0.01387 -0.00468,-0.03379 -0.00266,-0.04427 0.00343,-0.0178 0.019409,-0.01905 0.2431099,-0.01905 h 0.2394407 l -0.00297,0.03125 c -0.0057,0.05986 0.00511,0.05729 -0.2412925,0.05729 H 1.0262726 Z"
           style="fill:#c4baa8;stroke-width:0.01041667" />
        <path
           inkscape:connector-curvature="0"
           id="path871"
           d="m 1.0180632,10.753478 c -0.015996,-0.0065 -0.0183652,-0.181507 -0.00267,-0.197203 0.00668,-0.0067 0.044248,-0.0072 0.1058046,-0.0014 0.07682,0.0072 0.1078421,0.0057 0.1589191,-0.008 0.040066,-0.01074 0.092271,-0.0158 0.1415911,-0.01373 l 0.078125,0.0033 0.003,0.103306 c 0.0022,0.07563 -5.928e-4,0.105587 -0.010417,0.111819 -0.014264,0.0091 -0.4522952,0.01084 -0.4743565,0.0019 z m 0.00182,-0.310218 c -0.00351,-0.014 -0.00333,-0.0304 4.163e-4,-0.03646 0.0079,-0.01278 0.470126,-0.01581 0.4779598,-0.0031 0.00268,0.0043 0.00241,0.02074 -5.996e-4,0.03646 l -0.00546,0.02855 H 1.2592348 1.0262726 Z"
           style="fill:#c1ada6;stroke-width:0.01041667" />
        <path
           inkscape:connector-curvature="0"
           id="path869"
           d="m 1.0119868,10.743015 c -0.01104,-0.01104 -0.00804,-0.17529 0.00341,-0.18674 0.00668,-0.0067 0.044248,-0.0072 0.1058046,-0.0014 0.07682,0.0072 0.1078421,0.0057 0.1589191,-0.008 0.040066,-0.01074 0.092271,-0.0158 0.1415912,-0.01373 l 0.078125,0.0033 0.00297,0.106771 0.00297,0.106771 H 1.2623512 c -0.133881,0 -0.246545,-0.0031 -0.2503644,-0.0069 z m 0.0079,-0.299755 c -0.00351,-0.014 -0.00333,-0.0304 4.163e-4,-0.03646 0.0079,-0.01278 0.470126,-0.01581 0.4779598,-0.0031 0.00268,0.0043 0.00241,0.02074 -5.996e-4,0.03646 l -0.00546,0.02855 H 1.2592348 1.0262726 Z"
           style="fill:#bab3a3;stroke-width:0.01041667" />
        <path
           inkscape:connector-curvature="0"
           id="path867"
           d="m 1.0119868,10.743015 c -0.010235,-0.01023 -0.00814,-0.162533 0.00246,-0.179278 0.00723,-0.01142 0.029195,-0.01284 0.1076868,-0.007 0.076569,0.0057 0.1110005,0.0037 0.1541019,-0.0091 0.075645,-0.02246 0.2138625,-0.02247 0.2224819,-5e-6 0.00348,0.0091 0.00632,0.05828 0.00632,0.109375 v 0.0929 H 1.2619868 c -0.1336806,0 -0.2461806,-0.0031 -0.25,-0.0069 z m 0.010449,-0.307167 c -0.00328,-0.01256 -0.00358,-0.02671 -6.514e-4,-0.03145 0.00293,-0.0047 0.1108241,-0.0086 0.2397728,-0.0086 h 0.2344521 l -0.0033,0.02865 -0.0033,0.02865 -0.2305047,0.0028 c -0.2295839,0.0028 -0.2305285,0.0027 -0.2364767,-0.02004 z"
           style="fill:#c2ae94;stroke-width:0.01041667" />
        <path
           inkscape:connector-curvature="0"
           id="path865"
           d="m 1.0119868,10.743015 c -0.00952,-0.0095 -0.0085,-0.16198 0.00119,-0.177216 0.00526,-0.0083 0.050273,-0.0126 0.1378613,-0.01324 0.071527,-5.24e-4 0.1792669,-0.002 0.2394231,-0.0033 l 0.109375,-0.0024 0.00298,0.101562 0.00298,0.101563 H 1.262364 c -0.133888,0 -0.2465578,-0.0031 -0.2503772,-0.0069 z m 0.010449,-0.307167 c -0.00328,-0.01256 -0.00358,-0.02671 -6.514e-4,-0.03145 0.00293,-0.0047 0.1108241,-0.0086 0.2397728,-0.0086 h 0.2344521 l -0.0033,0.02865 -0.0033,0.02865 -0.2305047,0.0028 c -0.2295839,0.0028 -0.2305285,0.0027 -0.2364767,-0.02004 z"
           style="fill:#b4ad9d;stroke-width:0.01041667" />
        <path
           inkscape:connector-curvature="0"
           id="path863"
           d="m 1.0086644,10.733957 c -0.00745,-0.01941 9.039e-4,-0.169079 0.00994,-0.178115 0.00344,-0.0034 0.047965,-0.0013 0.098948,0.0047 0.075444,0.0089 0.1024533,0.0081 0.1451147,-0.0044 0.033646,-0.0099 0.085498,-0.01428 0.1447918,-0.01234 l 0.092374,0.003 v 0.09896 0.09896 l -0.2424405,0.0028 c -0.212584,0.0025 -0.243215,7.79e-4 -0.2487291,-0.01359 z m 0.017981,-0.300778 c -0.0094,-0.01132 -0.00909,-0.01671 0.00133,-0.02344 0.018735,-0.01211 0.4461875,-0.01775 0.4578911,-0.006 0.00519,0.0052 0.00645,0.01726 0.00278,0.02681 -0.00593,0.01546 -0.031016,0.01737 -0.2282327,0.01737 -0.1780284,0 -0.2239654,-0.0029 -0.2337663,-0.0147 z"
           style="fill:#a9a698;stroke-width:0.01041667" />
        <path
           inkscape:connector-curvature="0"
           id="path861"
           d="m 1.0086428,10.733901 c -0.00868,-0.02262 0.00201,-0.160466 0.013291,-0.171333 0.00503,-0.0049 0.052718,-0.0041 0.1059682,0.0017 0.081522,0.0088 0.103361,0.0079 0.1382317,-0.0061 0.02708,-0.01084 0.073718,-0.01657 0.1347541,-0.01657 0.1093292,0 0.1071527,-0.0027 0.1020566,0.125123 l -0.00311,0.078 -0.2424405,0.0028 c -0.2129296,0.0025 -0.2432087,7.95e-4 -0.2487507,-0.01365 z m 0.017233,-0.317275 c 0,-0.0066 0.083333,-0.01042 0.2291667,-0.01042 0.1458333,0 0.2291667,0.0038 0.2291667,0.01042 0,0.0066 -0.083333,0.01042 -0.2291667,0.01042 -0.1458334,0 -0.2291667,-0.0038 -0.2291667,-0.01042 z"
           style="fill:#9b9a8d;stroke-width:0.01041667" />
        <path
           inkscape:connector-curvature="0"
           id="path859"
           d="m 1.012174,10.743202 c -0.010878,-0.01088 -0.00849,-0.123718 0.00327,-0.154652 l 0.010398,-0.02735 0.098351,0.0072 c 0.079157,0.0058 0.1066462,0.0039 0.1408542,-0.0098 0.028249,-0.0113 0.073805,-0.01701 0.1358436,-0.01701 0.1093292,0 0.1071527,-0.0027 0.1020566,0.125123 l -0.00311,0.078 -0.2402642,0.0028 c -0.1321452,0.0015 -0.2434734,-4.18e-4 -0.2473958,-0.0043 z"
           style="fill:#a99385;stroke-width:0.01041667" />
        <path
           inkscape:connector-curvature="0"
           id="path857"
           d="m 1.015459,10.661091 c 0,-0.106271 2.69e-5,-0.106292 0.1144682,-0.09011 0.072758,0.01029 0.087503,0.0093 0.1405954,-0.0094 0.044009,-0.01547 0.0799,-0.02007 0.139104,-0.01782 l 0.079791,0.003 0.00803,0.07813 c 0.00442,0.04297 0.0055,0.08867 0.00241,0.101562 l -0.00563,0.02344 H 1.2548439 1.015459 Z"
           style="fill:#a48a73;stroke-width:0.01041667" />
        <path
           inkscape:connector-curvature="0"
           id="path855"
           d="m 1.0224035,10.743015 c -0.00382,-0.0038 -0.00694,-0.04381 -0.00694,-0.08887 0,-0.06517 0.00338,-0.08322 0.016511,-0.08826 0.00908,-0.0035 0.054784,-0.0011 0.1015626,0.0054 0.069928,0.0096 0.09246,0.0091 0.1267179,-0.0033 0.024463,-0.0088 0.08145,-0.01521 0.1380208,-0.01548 l 0.096354,-4.57e-4 v 0.09896 0.09896 H 1.2619873 c -0.1279514,0 -0.2357639,-0.0031 -0.2395833,-0.0069 z"
           style="fill:#948775;stroke-width:0.01041667" />
        <path
           inkscape:connector-curvature="0"
           id="path853"
           d="m 1.0225976,10.743209 c -0.011933,-0.01193 -0.00833,-0.159916 0.00389,-0.159916 0.00607,0 0.00813,-0.0047 0.00459,-0.01042 -0.00354,-0.0057 0.00321,-0.01042 0.01501,-0.01042 0.011796,0 0.02149,0.0035 0.021542,0.0078 5.21e-5,0.0043 0.03978,0.0092 0.088285,0.01082 0.06384,0.0022 0.096748,-0.0014 0.1191805,-0.01302 0.02122,-0.01097 0.06083,-0.01603 0.1256476,-0.01603 h 0.094658 l -0.003,0.09635 -0.003,0.09635 -0.2298406,0.0028 c -0.1264123,0.0015 -0.2330529,-4.14e-4 -0.2369791,-0.0043 z"
           style="fill:#7e8071;stroke-width:0.01041667" />
        <path
           inkscape:connector-curvature="0"
           id="path851"
           d="m 1.0225976,10.743209 c -0.013047,-0.01305 -0.00798,-0.147739 0.00588,-0.156461 0.00716,-0.0045 0.058114,-0.0067 0.1132287,-0.0049 0.076379,0.0025 0.1078379,-6.1e-4 0.1322952,-0.01326 0.022448,-0.01161 0.060524,-0.01659 0.1267455,-0.01659 h 0.094658 l -0.003,0.09635 -0.00299,0.09635 -0.2298406,0.0028 c -0.1264123,0.0015 -0.2330529,-4.14e-4 -0.2369791,-0.0043 z"
           style="fill:#8e7865;stroke-width:0.01041667" />
        <path
           inkscape:connector-curvature="0"
           id="path849"
           d="m 1.0284798,10.743164 c -0.00845,-0.0035 -0.013021,-0.02813 -0.013021,-0.07021 0,-0.09704 0.00532,-0.100638 0.1287596,-0.08705 0.097875,0.01078 0.1047506,0.01021 0.1458334,-0.01199 0.035944,-0.01942 0.056111,-0.02274 0.1212404,-0.01999 l 0.078125,0.0033 v 0.09375 0.09375 l -0.2239584,0.0019 c -0.123177,10e-4 -0.2298177,-5.26e-4 -0.2369791,-0.0035 z"
           style="fill:#8c6853;stroke-width:0.01041667" />
        <path
           inkscape:connector-curvature="0"
           id="path847"
           d="m 1.015459,10.682929 c 0,-0.03114 0.00471,-0.069 0.010469,-0.08415 0.00879,-0.02312 0.015055,-0.02656 0.039063,-0.02144 0.054818,0.01168 0.2100603,0.02406 0.2370187,0.01891 0.017179,-0.0033 0.025196,-0.0103 0.021819,-0.0191 -0.00712,-0.01854 0.052739,-0.02954 0.1122185,-0.02062 0.0448,0.0067 0.045543,0.0075 0.052014,0.05471 0.00361,0.02634 0.00656,0.06599 0.00656,0.08811 v 0.04021 H 1.2550424 1.015459 Z"
           style="fill:#736553;stroke-width:0.01041667" />
        <path
           inkscape:connector-curvature="0"
           id="path845"
           d="m 1.015459,10.679034 c 0,-0.09019 0.00432,-0.09272 0.1458333,-0.08544 0.1368421,0.007 0.1702535,0.0037 0.1625365,-0.01645 -0.00712,-0.01854 0.052739,-0.02954 0.1122185,-0.02062 0.0448,0.0067 0.045543,0.0075 0.052014,0.05471 0.00361,0.02634 0.00657,0.06599 0.00657,0.08811 v 0.04021 H 1.2550424 1.015459 Z"
           style="fill:#865a46;stroke-width:0.01041667" />
        <path
           inkscape:connector-curvature="0"
           id="path843"
           d="m 1.0203125,10.726522 c -0.0027,-0.0072 -0.00125,-0.04115 0.00323,-0.07552 0.00703,-0.05397 0.010942,-0.06212 0.028674,-0.0597 0.011294,0.0015 0.084299,0.0057 0.1622321,0.0093 0.1017651,0.0047 0.1437823,0.0031 0.1490977,-0.0055 0.00422,-0.0068 -7.282e-4,-0.01524 -0.011488,-0.01957 -0.024584,-0.0099 0.037488,-0.01986 0.091659,-0.01474 l 0.037631,0.0036 0.00599,0.07921 c 0.0033,0.04357 0.00366,0.08298 8.164e-4,0.08758 -0.00285,0.0046 -0.1081699,0.0084 -0.2340533,0.0084 -0.1735403,0 -0.2300658,-0.0031 -0.2337882,-0.01302 z"
           style="fill:#765343;stroke-width:0.01041667" />
        <path
           inkscape:connector-curvature="0"
           id="path841"
           d="m 1.0280039,10.669844 0.00308,-0.0697 0.1648164,0.0028 c 0.1605401,0.0028 0.164967,0.0023 0.170616,-0.01934 0.00511,-0.01954 0.012144,-0.02181 0.059142,-0.01908 l 0.053342,0.0031 0.00303,0.08594 0.00303,0.08594 H 1.2549877 1.0249238 Z"
           style="fill:#854a2b;stroke-width:0.01041667" />
        <path
           inkscape:connector-curvature="0"
           id="path839"
           d="m 1.0280039,10.669231 0.00308,-0.07031 0.041667,0.0028 c 0.022917,0.0015 0.073224,0.01021 0.1117934,0.0193 0.063997,0.0151 0.1575676,0.0158 0.2684149,0.002 0.024836,-0.0031 0.026186,-4.67e-4 0.029166,0.05666 l 0.00312,0.0599 H 1.2550862 1.0249238 Z m 0.3650593,-0.08264 c -0.012891,-0.0026 -0.023437,-0.0094 -0.023437,-0.01498 0,-0.01344 0.103677,-0.0072 0.1069075,0.0065 0.00267,0.01126 -0.045564,0.01618 -0.08347,0.0085 z"
           style="fill:#79482c;stroke-width:0.01041667" />
        <path
           inkscape:connector-curvature="0"
           id="path837"
           d="m 1.0258757,10.677658 c 0,-0.03404 0.00378,-0.06422 0.00841,-0.06708 0.00463,-0.0029 0.036266,-9.2e-4 0.070312,0.0043 0.2190212,0.03362 0.233196,0.0347 0.2982335,0.0226 0.075364,-0.01402 0.080974,-0.01002 0.081219,0.05779 l 1.595e-4,0.04427 H 1.2550424 1.0258757 Z M 1.406084,10.572876 c -0.00815,-0.01318 0.00564,-0.01318 0.026042,0 0.013465,0.0087 0.013191,0.01012 -0.00199,0.01026 -0.00969,8.7e-5 -0.020511,-0.0045 -0.024053,-0.01026 z"
           style="fill:#703923;stroke-width:0.01041667" />
        <path
           inkscape:connector-curvature="0"
           id="path835"
           d="m 1.0258757,10.704387 c 0,-0.01361 0.00301,-0.03977 0.00668,-0.05814 l 0.00668,-0.0334 0.058424,0.0045 c 0.032133,0.0025 0.099358,0.01076 0.1493896,0.01835 0.071233,0.01081 0.1049961,0.01119 0.1556427,0.0018 0.035572,-0.0066 0.065683,-0.01097 0.066914,-0.0097 0.00123,0.0013 0.00555,0.02461 0.0096,0.05182 l 0.00736,0.04948 H 1.2562251 1.0258757 Z"
           style="fill:#74371b;stroke-width:0.01041667" />
        <path
           inkscape:connector-curvature="0"
           id="path833"
           d="m 1.0258757,10.704387 c 0,-0.01361 0.0028,-0.03876 0.00623,-0.0559 l 0.00623,-0.03116 0.048803,0.01854 c 0.083291,0.03165 0.2044159,0.04445 0.2977419,0.03147 0.088912,-0.01237 0.098845,-0.0085 0.099164,0.03835 l 1.595e-4,0.02344 H 1.2550424 1.0258757 Z"
           style="fill:#6d3116;stroke-width:0.01041667" />
        <path
           inkscape:connector-curvature="0"
           id="path831"
           d="m 1.0297819,10.696574 c 0.00358,-0.0179 0.00651,-0.03855 0.00651,-0.04587 0,-0.01323 0.071699,0.0079 0.1340351,0.0395 0.034187,0.01733 0.2044363,0.01322 0.2565899,-0.0062 0.022917,-0.0085 0.042179,-0.01476 0.042806,-0.01384 6.264e-4,9.19e-4 0.00423,0.01456 0.00801,0.03032 l 0.00687,0.02864 H 1.2539387 1.0232715 Z"
           style="fill:#672a12;stroke-width:0.01041667" />
        <path
           inkscape:connector-curvature="0"
           id="path829"
           d="m 1.0339959,10.698384 0.00451,-0.03074 0.030109,0.02226 c 0.020992,0.01552 0.052985,0.02437 0.105663,0.02922 0.075089,0.0069 0.074875,0.007 -0.034621,0.0085 l -0.110175,0.0015 z m 0.3408381,0.02019 c 0.034375,-0.0042 0.070098,-0.0109 0.079385,-0.0148 0.010628,-0.0045 0.019192,-0.0011 0.023111,0.0091 0.00535,0.01394 -0.00581,0.01602 -0.079385,0.0148 l -0.085611,-0.0014 z"
           style="fill:#5d220e;stroke-width:0.01041667" />
      </g>
      <rect
         y="10.39058"
         x="1.01025"
         height="0.37500012"
         width="0.50000018"
         id="rect931"
         style="opacity:1;fill:none;fill-opacity:1;fill-rule:nonzero;stroke:#000000;stroke-width:0.01041667;stroke-linecap:round;stroke-linejoin:miter;stroke-miterlimit:4;stroke-dasharray:none;stroke-dashoffset:0;stroke-opacity:1;paint-order:normal" />
    </g>
  </g>
</svg>
